<svg width="335" height="250" viewBox="0 0 335 250" fill="none" xmlns="http://www.w3.org/2000/svg">
<path d="M315.502 36.8C314.889 33.488 313.785 30.9733 312.19 29.256C310.657 27.5387 308.295 26.68 305.106 26.68C303.021 26.68 301.273 27.048 299.862 27.784C298.513 28.4587 297.409 29.3173 296.55 30.36C295.753 31.4027 295.17 32.5067 294.802 33.672C294.495 34.8373 294.311 35.88 294.25 36.8H315.502ZM294.25 45.08C294.434 49.312 295.507 52.3787 297.47 54.28C299.433 56.1813 302.254 57.132 305.934 57.132C308.571 57.132 310.841 56.488 312.742 55.2C314.643 53.8507 315.809 52.44 316.238 50.968H327.738C325.898 56.672 323.077 60.7507 319.274 63.204C315.471 65.6573 310.871 66.884 305.474 66.884C301.733 66.884 298.359 66.3013 295.354 65.136C292.349 63.9093 289.803 62.192 287.718 59.984C285.633 57.776 284.007 55.1387 282.842 52.072C281.738 49.0053 281.186 45.632 281.186 41.952C281.186 38.3947 281.769 35.0827 282.934 32.016C284.099 28.9493 285.755 26.312 287.902 24.104C290.049 21.8347 292.594 20.056 295.538 18.768C298.543 17.48 301.855 16.836 305.474 16.836C309.522 16.836 313.049 17.6333 316.054 19.228C319.059 20.7613 321.513 22.8467 323.414 25.484C325.377 28.1213 326.787 31.1267 327.646 34.5C328.505 37.8733 328.811 41.4 328.566 45.08H294.25Z" fill="black"/>
<path d="M263.042 34.868C262.183 29.4093 258.963 26.68 253.382 26.68C251.296 26.68 249.548 27.1707 248.138 28.152C246.727 29.072 245.562 30.2987 244.642 31.832C243.783 33.304 243.17 34.96 242.802 36.8C242.434 38.5787 242.25 40.3573 242.25 42.136C242.25 43.8533 242.434 45.6013 242.802 47.38C243.17 49.1587 243.752 50.784 244.55 52.256C245.408 53.6667 246.543 54.832 247.954 55.752C249.364 56.672 251.082 57.132 253.106 57.132C256.234 57.132 258.626 56.2733 260.282 54.556C261.999 52.7773 263.072 50.416 263.502 47.472H276.106C275.247 53.7893 272.794 58.604 268.746 61.916C264.698 65.228 259.515 66.884 253.198 66.884C249.64 66.884 246.359 66.3013 243.354 65.136C240.41 63.9093 237.895 62.2227 235.81 60.076C233.724 57.9293 232.099 55.384 230.934 52.44C229.768 49.4347 229.186 46.1533 229.186 42.596C229.186 38.916 229.707 35.512 230.75 32.384C231.854 29.1947 233.448 26.4653 235.534 24.196C237.619 21.8653 240.164 20.056 243.17 18.768C246.175 17.48 249.61 16.836 253.474 16.836C256.295 16.836 258.994 17.204 261.57 17.94C264.207 18.676 266.538 19.8107 268.562 21.344C270.647 22.816 272.334 24.6867 273.622 26.956C274.91 29.164 275.646 31.8013 275.83 34.868H263.042Z" fill="black"/>
<path d="M177.278 32.752C177.462 29.6853 178.228 27.14 179.578 25.116C180.927 23.092 182.644 21.4667 184.73 20.24C186.815 19.0133 189.146 18.1547 191.722 17.664C194.359 17.112 196.996 16.836 199.634 16.836C202.026 16.836 204.448 17.02 206.902 17.388C209.355 17.6947 211.594 18.3387 213.618 19.32C215.642 20.3013 217.298 21.6813 218.586 23.46C219.874 25.1773 220.518 27.4773 220.518 30.36V55.108C220.518 57.2547 220.64 59.3093 220.886 61.272C221.131 63.2347 221.56 64.7067 222.174 65.688H208.926C208.68 64.952 208.466 64.216 208.282 63.48C208.159 62.6827 208.067 61.8853 208.006 61.088C205.92 63.2347 203.467 64.7373 200.646 65.596C197.824 66.4547 194.942 66.884 191.998 66.884C189.728 66.884 187.612 66.608 185.65 66.056C183.687 65.504 181.97 64.6453 180.498 63.48C179.026 62.3147 177.86 60.8427 177.002 59.064C176.204 57.2853 175.806 55.1693 175.806 52.716C175.806 50.0173 176.266 47.8093 177.186 46.092C178.167 44.3133 179.394 42.9027 180.866 41.86C182.399 40.8173 184.116 40.0507 186.018 39.56C187.98 39.008 189.943 38.5787 191.906 38.272C193.868 37.9653 195.8 37.72 197.702 37.536C199.603 37.352 201.29 37.076 202.762 36.708C204.234 36.34 205.399 35.8187 206.258 35.144C207.116 34.408 207.515 33.3653 207.454 32.016C207.454 30.6053 207.208 29.5013 206.718 28.704C206.288 27.8453 205.675 27.2013 204.878 26.772C204.142 26.2813 203.252 25.9747 202.21 25.852C201.228 25.668 200.155 25.576 198.99 25.576C196.414 25.576 194.39 26.128 192.918 27.232C191.446 28.336 190.587 30.176 190.342 32.752H177.278ZM207.454 42.412C206.902 42.9027 206.196 43.3013 205.338 43.608C204.54 43.8533 203.651 44.068 202.67 44.252C201.75 44.436 200.768 44.5893 199.726 44.712C198.683 44.8347 197.64 44.988 196.598 45.172C195.616 45.356 194.635 45.6013 193.654 45.908C192.734 46.2147 191.906 46.644 191.17 47.196C190.495 47.6867 189.943 48.3307 189.514 49.128C189.084 49.9253 188.87 50.9373 188.87 52.164C188.87 53.3293 189.084 54.3107 189.514 55.108C189.943 55.9053 190.526 56.5493 191.262 57.04C191.998 57.4693 192.856 57.776 193.838 57.96C194.819 58.144 195.831 58.236 196.874 58.236C199.45 58.236 201.443 57.8067 202.854 56.948C204.264 56.0893 205.307 55.0773 205.982 53.912C206.656 52.6853 207.055 51.4587 207.178 50.232C207.362 49.0053 207.454 48.024 207.454 47.288V42.412Z" fill="black"/>
<path d="M154.479 0H167.543V65.688H154.479V0Z" fill="black"/>
<path d="M121.881 57.132C124.027 57.132 125.806 56.7027 127.217 55.844C128.689 54.9853 129.854 53.8813 130.713 52.532C131.633 51.1213 132.277 49.496 132.645 47.656C133.013 45.816 133.197 43.9453 133.197 42.044C133.197 40.1427 132.982 38.272 132.553 36.432C132.185 34.592 131.541 32.9667 130.621 31.556C129.701 30.084 128.505 28.9187 127.033 28.06C125.622 27.14 123.874 26.68 121.789 26.68C119.642 26.68 117.833 27.14 116.361 28.06C114.95 28.9187 113.785 30.0533 112.865 31.464C112.006 32.8747 111.393 34.5 111.025 36.34C110.657 38.18 110.473 40.0813 110.473 42.044C110.473 43.9453 110.657 45.816 111.025 47.656C111.454 49.496 112.098 51.1213 112.957 52.532C113.877 53.8813 115.073 54.9853 116.545 55.844C118.017 56.7027 119.795 57.132 121.881 57.132ZM97.869 18.124H110.289V24.196H110.473C112.067 21.62 114.091 19.7493 116.545 18.584C118.998 17.4187 121.697 16.836 124.641 16.836C128.382 16.836 131.602 17.5413 134.301 18.952C136.999 20.3627 139.238 22.2333 141.017 24.564C142.795 26.8947 144.114 29.624 144.973 32.752C145.831 35.8187 146.261 39.0387 146.261 42.412C146.261 45.6013 145.831 48.668 144.973 51.612C144.114 54.556 142.795 57.1627 141.017 59.432C139.299 61.7013 137.122 63.5107 134.485 64.86C131.909 66.2093 128.873 66.884 125.377 66.884C122.433 66.884 119.703 66.3013 117.189 65.136C114.735 63.9093 112.711 62.1307 111.117 59.8H110.933V82.34H97.869V18.124Z" fill="black"/>
<path d="M77.057 36.8C76.443 33.488 75.339 30.9733 73.745 29.256C72.211 27.5387 69.85 26.68 66.661 26.68C64.575 26.68 62.827 27.048 61.417 27.784C60.067 28.4587 58.963 29.3173 58.105 30.36C57.307 31.4027 56.725 32.5067 56.357 33.672C56.05 34.8373 55.866 35.88 55.805 36.8H77.057ZM55.805 45.08C55.989 49.312 57.062 52.3787 59.025 54.28C60.987 56.1813 63.809 57.132 67.489 57.132C70.126 57.132 72.395 56.488 74.297 55.2C76.198 53.8507 77.363 52.44 77.793 50.968H89.293C87.453 56.672 84.631 60.7507 80.829 63.204C77.026 65.6573 72.426 66.884 67.029 66.884C63.287 66.884 59.914 66.3013 56.909 65.136C53.9033 63.9093 51.3579 62.192 49.2726 59.984C47.1873 57.776 45.5619 55.1387 44.3966 52.072C43.2926 49.0053 42.7406 45.632 42.7406 41.952C42.7406 38.3947 43.3233 35.0827 44.4886 32.016C45.6539 28.9493 47.3099 26.312 49.4566 24.104C51.6033 21.8347 54.1486 20.056 57.093 18.768C60.098 17.48 63.41 16.836 67.029 16.836C71.077 16.836 74.603 17.6333 77.609 19.228C80.614 20.7613 83.067 22.8467 84.969 25.484C86.931 28.1213 88.342 31.1267 89.201 34.5C90.059 37.8733 90.366 41.4 90.121 45.08H55.805Z" fill="black"/>
<path d="M10.9 18.124H23.32V26.956H23.504C24.1174 25.484 24.9454 24.1347 25.988 22.908C27.0307 21.62 28.2267 20.5467 29.576 19.688C30.9254 18.768 32.3667 18.0627 33.9 17.572C35.4334 17.0813 37.028 16.836 38.684 16.836C39.5427 16.836 40.4934 16.9893 41.536 17.296V29.44C40.9227 29.3173 40.1867 29.2253 39.328 29.164C38.4694 29.0413 37.6414 28.98 36.844 28.98C34.452 28.98 32.428 29.3787 30.772 30.176C29.116 30.9733 27.7667 32.0773 26.724 33.488C25.7427 34.8373 25.0374 36.432 24.608 38.272C24.1787 40.112 23.964 42.1053 23.964 44.252V65.688H10.9V18.124Z" fill="black"/>
<path d="M125.931 124.047C125.317 120.735 124.213 118.22 122.619 116.503C121.085 114.785 118.724 113.927 115.535 113.927C113.449 113.927 111.701 114.295 110.291 115.031C108.941 115.705 107.837 116.564 106.979 117.607C106.181 118.649 105.599 119.753 105.23 120.919C104.924 122.084 104.74 123.127 104.679 124.047H125.931ZM104.679 132.327C104.863 136.559 105.936 139.625 107.899 141.527C109.861 143.428 112.683 144.379 116.363 144.379C119 144.379 121.269 143.735 123.171 142.447C125.072 141.097 126.237 139.687 126.667 138.215H138.167C136.327 143.919 133.505 147.997 129.703 150.451C125.9 152.904 121.3 154.131 115.903 154.131C112.161 154.131 108.788 153.548 105.783 152.383C102.777 151.156 100.232 149.439 98.146 147.231C96.061 145.023 94.436 142.385 93.271 139.319C92.167 136.252 91.615 132.879 91.615 129.199C91.615 125.641 92.197 122.329 93.363 119.263C94.528 116.196 96.184 113.559 98.331 111.351C100.477 109.081 103.022 107.303 105.966 106.015C108.972 104.727 112.284 104.083 115.903 104.083C119.951 104.083 123.477 104.88 126.483 106.475C129.488 108.008 131.941 110.093 133.842 112.731C135.805 115.368 137.216 118.373 138.075 121.747C138.933 125.12 139.24 128.647 138.995 132.327H104.679Z" fill="black"/>
<path d="M10.9076 105.371H23.2356V111.811H23.4196C25.1369 109.357 27.1916 107.456 29.5836 106.107C32.0369 104.757 34.8276 104.083 37.9556 104.083C40.9609 104.083 43.6903 104.665 46.1436 105.831C48.6583 106.996 50.5596 109.051 51.8476 111.995C53.2583 109.909 55.16 108.069 57.552 106.475C60.005 104.88 62.888 104.083 66.2 104.083C68.714 104.083 71.045 104.389 73.192 105.003C75.338 105.616 77.178 106.597 78.712 107.947C80.245 109.296 81.441 111.075 82.3 113.283C83.158 115.429 83.588 118.036 83.588 121.103V152.935H70.524V125.979C70.524 124.384 70.462 122.881 70.34 121.471C70.217 120.06 69.88 118.833 69.328 117.791C68.776 116.748 67.948 115.92 66.844 115.307C65.801 114.693 64.36 114.387 62.52 114.387C60.68 114.387 59.177 114.755 58.012 115.491C56.908 116.165 56.018 117.085 55.344 118.251C54.7303 119.355 54.3009 120.643 54.0556 122.115C53.8716 123.525 53.7796 124.967 53.7796 126.439V152.935H40.7156V126.255C40.7156 124.844 40.6849 123.464 40.6236 122.115C40.5623 120.704 40.2863 119.416 39.7956 118.251C39.3663 117.085 38.5996 116.165 37.4956 115.491C36.4529 114.755 34.8889 114.387 32.8036 114.387C32.1903 114.387 31.3623 114.54 30.3196 114.847C29.3383 115.092 28.3569 115.613 27.3756 116.411C26.4556 117.147 25.6583 118.251 24.9836 119.723C24.3089 121.133 23.9716 123.004 23.9716 125.335V152.935H10.9076V105.371Z" fill="black"/>
<path d="M253.932 235.67C252.521 239.534 250.558 242.294 248.044 243.95C245.529 245.606 242.033 246.434 237.556 246.434C236.206 246.434 234.857 246.373 233.508 246.25C232.22 246.189 230.901 246.097 229.552 245.974V235.21C230.778 235.333 232.036 235.455 233.324 235.578C234.612 235.701 235.9 235.731 237.188 235.67C238.905 235.486 240.162 234.811 240.96 233.646C241.818 232.481 242.248 231.193 242.248 229.782C242.248 228.739 242.064 227.758 241.696 226.838L225.044 182.218H238.936L249.7 214.786H249.884L260.28 182.218H273.804L253.932 235.67Z" fill="black"/>
<path d="M207.121 164.094H220.185V229.782H207.121V164.094Z" fill="black"/>
<path d="M190.969 182.218H200.537V190.958H190.969V214.51C190.969 216.718 191.337 218.19 192.073 218.926C192.809 219.662 194.281 220.03 196.489 220.03C197.225 220.03 197.93 219.999 198.605 219.938C199.28 219.877 199.924 219.785 200.537 219.662V229.782C199.433 229.966 198.206 230.089 196.857 230.15C195.508 230.211 194.189 230.242 192.901 230.242C190.877 230.242 188.945 230.089 187.105 229.782C185.326 229.537 183.732 229.015 182.321 228.218C180.972 227.421 179.898 226.286 179.101 224.814C178.304 223.342 177.905 221.41 177.905 219.018V190.958H169.993V182.218H177.905V167.958H190.969V182.218Z" fill="black"/>
<path d="M119.874 182.218H132.294V188.842H132.57C134.226 186.082 136.373 184.089 139.01 182.862C141.647 181.574 144.346 180.93 147.106 180.93C150.602 180.93 153.454 181.421 155.662 182.402C157.931 183.322 159.71 184.641 160.998 186.358C162.286 188.014 163.175 190.069 163.666 192.522C164.218 194.914 164.494 197.582 164.494 200.526V229.782H151.43V202.918C151.43 198.993 150.817 196.079 149.59 194.178C148.363 192.215 146.186 191.234 143.058 191.234C139.501 191.234 136.925 192.307 135.33 194.454C133.735 196.539 132.938 200.005 132.938 204.85V229.782H119.874V182.218Z" fill="black"/>
<path d="M99.062 200.894C98.448 197.582 97.344 195.067 95.75 193.35C94.216 191.633 91.855 190.774 88.666 190.774C86.58 190.774 84.832 191.142 83.422 191.878C82.072 192.553 80.968 193.411 80.11 194.454C79.312 195.497 78.73 196.601 78.362 197.766C78.055 198.931 77.871 199.974 77.81 200.894H99.062ZM77.81 209.174C77.994 213.406 79.067 216.473 81.03 218.374C82.992 220.275 85.814 221.226 89.494 221.226C92.131 221.226 94.4 220.582 96.302 219.294C98.203 217.945 99.368 216.534 99.798 215.062H111.298C109.458 220.766 106.636 224.845 102.834 227.298C99.031 229.751 94.431 230.978 89.034 230.978C85.292 230.978 81.919 230.395 78.914 229.23C75.908 228.003 73.363 226.286 71.278 224.078C69.192 221.87 67.567 219.233 66.402 216.166C65.298 213.099 64.746 209.726 64.746 206.046C64.746 202.489 65.328 199.177 66.494 196.11C67.659 193.043 69.315 190.406 71.462 188.198C73.608 185.929 76.154 184.15 79.098 182.862C82.103 181.574 85.415 180.93 89.034 180.93C93.082 180.93 96.608 181.727 99.614 183.322C102.619 184.855 105.072 186.941 106.974 189.578C108.936 192.215 110.347 195.221 111.206 198.594C112.064 201.967 112.371 205.494 112.126 209.174H77.81Z" fill="black"/>
<path d="M32.9755 218.558C34.8155 218.558 36.4409 218.19 37.8515 217.454C39.2622 216.718 40.4275 215.737 41.3475 214.51C42.2675 213.283 42.9422 211.903 43.3715 210.37C43.8622 208.775 44.1075 207.119 44.1075 205.402C44.1075 203.439 43.9235 201.599 43.5555 199.882C43.1875 198.103 42.5742 196.539 41.7155 195.19C40.8569 193.841 39.7222 192.767 38.3115 191.97C36.9009 191.173 35.1222 190.774 32.9755 190.774C31.1355 190.774 29.5409 191.142 28.1915 191.878C26.9035 192.614 25.7995 193.626 24.8795 194.914C24.0209 196.141 23.3769 197.582 22.9475 199.238C22.5795 200.833 22.3955 202.519 22.3955 204.298C22.3955 206.015 22.5489 207.733 22.8555 209.45C23.2235 211.106 23.8062 212.609 24.6035 213.958C25.4622 215.307 26.5662 216.411 27.9155 217.27C29.2649 218.129 30.9515 218.558 32.9755 218.558ZM56.528 226.746C56.528 228.647 56.252 230.825 55.7 233.278C55.209 235.731 54.1049 238.001 52.3875 240.086C50.6702 242.233 48.1862 244.042 44.9355 245.514C41.6849 246.986 37.3302 247.722 31.8715 247.722C29.5409 247.722 27.1489 247.415 24.6955 246.802C22.3035 246.25 20.0955 245.361 18.0715 244.134C16.1089 242.907 14.4529 241.313 13.1035 239.35C11.8155 237.449 11.0795 235.149 10.8955 232.45H23.8675C24.4809 234.903 25.6769 236.59 27.4555 237.51C29.2342 238.491 31.2889 238.982 33.6195 238.982C37.2995 238.982 39.9675 237.878 41.6235 235.67C43.3409 233.462 44.1689 230.671 44.1075 227.298V221.042H43.9235C42.5129 223.557 40.4889 225.427 37.8515 226.654C35.2755 227.819 32.5462 228.402 29.6635 228.402C26.1062 228.402 23.0395 227.789 20.4635 226.562C17.8875 225.274 15.7715 223.557 14.1155 221.41C12.4595 219.202 11.2329 216.657 10.4355 213.774C9.69954 210.83 9.33154 207.733 9.33154 204.482C9.33154 201.415 9.76094 198.471 10.6195 195.65C11.5395 192.767 12.8582 190.253 14.5755 188.106C16.2929 185.898 18.4089 184.15 20.9235 182.862C23.4995 181.574 26.4435 180.93 29.7555 180.93C32.8835 180.93 35.6129 181.513 37.9435 182.678C40.3355 183.843 42.3289 185.806 43.9235 188.566H44.1075V182.218H56.528V226.746Z" fill="black"/>
<path d="M262.976 113.416C261.07 113.416 259.524 115.255 259.524 117.524L259.524 131.578C259.524 133.847 261.07 135.686 262.976 135.686L263.667 135.686L263.667 113.416L262.976 113.416Z" fill="black"/>
<path d="M266.428 112.644C266.428 105.4 272.301 99.527 279.546 99.527H308.626C315.871 99.527 321.744 105.4 321.744 112.644V149.575H279.546C272.301 149.575 266.428 143.702 266.428 136.458V112.644Z" fill="black"/>
<path fill-rule="evenodd" clip-rule="evenodd" d="M286.496 116.128C284.443 114.308 282.403 113.457 280.501 113.418C278.369 113.374 276.579 114.355 275.335 115.8C272.911 118.617 272.375 123.474 275.483 126.57L275.486 126.574L283.423 134.409C285.148 136.111 287.843 136.111 289.568 134.409L297.505 126.574L297.509 126.571C300.61 123.48 300.068 118.627 297.645 115.812C296.402 114.367 294.614 113.385 292.483 113.426C290.583 113.464 288.545 114.312 286.496 116.128Z" fill="white"/>
<path d="M314.84 131.97C314.84 134.258 312.985 136.112 310.697 136.112C308.41 136.112 306.555 134.258 306.555 131.97V127.071H314.84V131.97ZM310.697 112.99C312.985 112.99 314.84 114.845 314.84 117.132V122.031H306.555V117.132C306.555 114.845 308.41 112.99 310.697 112.99Z" fill="white"/>
<path d="M325.196 113.416C327.102 113.416 328.648 115.255 328.648 117.524L328.648 131.578C328.648 133.847 327.102 135.686 325.196 135.686L324.505 135.686L324.505 113.416L325.196 113.416Z" fill="black"/>
<rect x="153.522" y="125" width="91.9019" height="4.10699" fill="#00FFF0"/>
</svg>
