<svg width="164" height="119" viewBox="0 0 164 119" fill="none" xmlns="http://www.w3.org/2000/svg">
<path d="M8.14059 81.0815C3.64467 81.0815 -1.59313e-07 77.4369 -3.55836e-07 72.941L-1.57347e-06 45.0848C-1.76999e-06 40.5889 3.64467 36.9442 8.14059 36.9442L9.76871 36.9442L9.76871 81.0815L8.14059 81.0815Z" fill="black"/>
<path d="M16.2812 30.9342C16.2812 13.8497 30.1309 0 47.2154 0L115.794 0C132.879 0 146.729 13.8497 146.729 30.9342V118.026L47.2154 118.026C30.1309 118.026 16.2812 104.176 16.2812 87.0916L16.2812 30.9342Z" fill="black"/>
<path fill-rule="evenodd" clip-rule="evenodd" d="M63.6057 39.1495C58.7651 34.8583 53.9546 32.8508 49.4691 32.758C44.4396 32.654 40.2189 34.9684 37.2862 38.3764C31.5695 45.0195 30.3058 56.4732 37.6345 63.7753L37.6424 63.7831L56.3599 82.2595C60.4279 86.2749 66.7831 86.2749 70.8512 82.2596L89.5687 63.7831L89.5765 63.7753C96.8907 56.4881 95.6112 45.0425 89.898 38.4034C86.9664 34.9968 82.7493 32.6796 77.7243 32.7782C73.243 32.8661 68.4384 34.8671 63.6057 39.1495Z" fill="white"/>
<path d="M130.447 76.509C130.447 81.9041 126.074 86.2776 120.679 86.2776C115.284 86.2774 110.91 81.904 110.91 76.509V64.9563H130.447V76.509ZM120.679 31.7483C126.074 31.7483 130.447 36.1227 130.447 41.5178V53.0706H110.91V41.5178C110.91 36.1228 115.284 31.7485 120.679 31.7483Z" fill="white"/>
<path d="M154.869 36.9442C159.365 36.9442 163.01 40.5889 163.01 45.0848L163.01 72.9409C163.01 77.4369 159.365 81.0815 154.869 81.0815L153.241 81.0815L153.241 36.9442L154.869 36.9442Z" fill="black"/>
</svg>
