<svg width="248" height="88" viewBox="0 0 248 88" fill="none" xmlns="http://www.w3.org/2000/svg">
<path d="M225.194 57.5167C226.734 57.5167 228.094 57.2087 229.275 56.5928C230.455 55.9769 231.43 55.1557 232.2 54.1292C232.97 53.1028 233.535 51.948 233.894 50.6649C234.305 49.3304 234.51 47.9447 234.51 46.5076C234.51 44.8652 234.356 43.3255 234.048 41.8884C233.74 40.4 233.227 39.0912 232.508 37.9621C231.79 36.8329 230.84 35.9348 229.66 35.2676C228.479 34.6003 226.991 34.2667 225.194 34.2667C223.655 34.2667 222.32 34.5747 221.191 35.1906C220.113 35.8065 219.19 36.6533 218.42 37.7311C217.701 38.7576 217.162 39.9637 216.803 41.3495C216.495 42.6839 216.341 44.0953 216.341 45.5837C216.341 47.0208 216.469 48.4579 216.726 49.895C217.034 51.2808 217.521 52.5382 218.189 53.6673C218.907 54.7965 219.831 55.7203 220.96 56.4388C222.089 57.1574 223.501 57.5167 225.194 57.5167ZM244.903 64.3685C244.903 65.9595 244.672 67.7815 244.21 69.8345C243.8 71.8875 242.876 73.7865 241.439 75.5315C240.002 77.3279 237.923 78.8419 235.203 80.0737C232.483 81.3055 228.838 81.9214 224.271 81.9214C222.32 81.9214 220.319 81.6648 218.266 81.1515C216.264 80.6896 214.416 79.9454 212.723 78.9189C211.08 77.8924 209.695 76.558 208.565 74.9156C207.488 73.3246 206.872 71.3999 206.718 69.1416H217.573C218.086 71.1946 219.087 72.606 220.575 73.3759C222.064 74.1971 223.783 74.6077 225.733 74.6077C228.813 74.6077 231.045 73.6838 232.431 71.8361C233.868 69.9885 234.561 67.6532 234.51 64.8304V59.5953H234.356C233.175 61.6996 231.482 63.265 229.275 64.2915C227.119 65.2666 224.835 65.7542 222.423 65.7542C219.446 65.7542 216.88 65.241 214.724 64.2145C212.569 63.1367 210.798 61.6996 209.412 59.9032C208.026 58.0556 207 55.9256 206.333 53.5134C205.717 51.0498 205.409 48.4579 205.409 45.7377C205.409 43.1715 205.768 40.7079 206.487 38.347C207.257 35.9348 208.36 33.8305 209.797 32.0341C211.234 30.1864 213.005 28.7237 215.109 27.6459C217.265 26.5681 219.728 26.0292 222.5 26.0292C225.117 26.0292 227.401 26.5168 229.352 27.4919C231.353 28.4671 233.021 30.1095 234.356 32.4191H234.51V27.107H244.903V64.3685Z" fill="black"/>
<path d="M140.18 27.107H150.496V32.496H150.65C152.087 30.4431 153.806 28.852 155.808 27.7229C157.861 26.5937 160.196 26.0292 162.814 26.0292C165.329 26.0292 167.613 26.5168 169.666 27.4919C171.77 28.4671 173.361 30.1864 174.439 32.65C175.619 30.905 177.21 29.3653 179.212 28.0308C181.265 26.6964 183.677 26.0292 186.449 26.0292C188.553 26.0292 190.503 26.2858 192.3 26.799C194.096 27.3123 195.636 28.1335 196.919 29.2626C198.202 30.3917 199.203 31.8802 199.921 33.7278C200.64 35.5242 200.999 37.7055 200.999 40.2717V66.909H190.067V44.352C190.067 43.0175 190.016 41.7601 189.913 40.5796C189.81 39.3992 189.528 38.3727 189.066 37.5002C188.604 36.6277 187.911 35.9348 186.987 35.4215C186.115 34.9083 184.909 34.6517 183.369 34.6517C181.829 34.6517 180.572 34.9596 179.597 35.5755C178.673 36.1401 177.929 36.9099 177.364 37.8851C176.851 38.8089 176.492 39.8867 176.286 41.1185C176.132 42.299 176.055 43.5051 176.055 44.7369V66.909H165.123V44.5829C165.123 43.4025 165.098 42.2477 165.046 41.1185C164.995 39.9381 164.764 38.8603 164.353 37.8851C163.994 36.9099 163.353 36.1401 162.429 35.5755C161.556 34.9596 160.248 34.6517 158.502 34.6517C157.989 34.6517 157.296 34.78 156.424 35.0366C155.603 35.2419 154.781 35.6781 153.96 36.3454C153.19 36.9613 152.523 37.8851 151.959 39.1169C151.394 40.2973 151.112 41.8627 151.112 43.8131V66.909H140.18V27.107Z" fill="black"/>
<path d="M109.949 27.107H120.342V34.4977H120.496C121.01 33.2659 121.702 32.1368 122.575 31.1103C123.448 30.0325 124.448 29.1343 125.577 28.4158C126.707 27.6459 127.913 27.0557 129.196 26.6451C130.479 26.2345 131.813 26.0292 133.199 26.0292C133.918 26.0292 134.713 26.1575 135.586 26.4141V36.5763C135.072 36.4737 134.457 36.3967 133.738 36.3454C133.02 36.2427 132.327 36.1914 131.659 36.1914C129.658 36.1914 127.964 36.525 126.578 37.1922C125.193 37.8594 124.063 38.7833 123.191 39.9637C122.37 41.0929 121.779 42.4273 121.42 43.967C121.061 45.5068 120.881 47.1748 120.881 48.9712V66.909H109.949V27.107Z" fill="black"/>
<path d="M0 22.8101C0 10.2124 10.2124 0 22.8101 0L73.3784 0C85.9761 0 96.1885 10.2124 96.1885 22.8101V87.0292H22.8101C10.2124 87.0292 0 76.8168 0 64.2191L0 22.8101Z" fill="black"/>
<path d="M10 26C10 17.1634 17.1634 10 26 10L70.1885 10C79.0251 10 86.1885 17.1634 86.1885 26V77.0292H26C17.1635 77.0292 10 69.8657 10 61.0292L10 26Z" fill="white"/>
<rect x="30" y="31.2039" width="12.5571" height="24.6214" rx="6.27856" fill="black"/>
<rect x="53.6313" y="31.2039" width="12.5571" height="24.6214" rx="6.27856" fill="black"/>
</svg>
